<?xml version="1.0" standalone="no"?>
<!DOCTYPE svg PUBLIC "-//W3C//DTD SVG 20010904//EN"
 "http://www.w3.org/TR/2001/REC-SVG-20010904/DTD/svg10.dtd">
<svg version="1.0" xmlns="http://www.w3.org/2000/svg"
 width="700.000000pt" height="700.000000pt" viewBox="0 0 700.000000 700.000000"
 preserveAspectRatio="xMidYMid meet">
<metadata>
Created by potrace 1.14, written by Peter Selinger 2001-2017
</metadata>
<g transform="translate(0.000000,700.000000) scale(0.100000,-0.100000)"
fill="#000000" stroke="none">
<path d="M3278 6996 c-1 -2 -42 -6 -89 -10 -47 -4 -95 -8 -105 -10 -10 -2 -48
-7 -84 -12 -36 -4 -67 -8 -70 -9 -3 -1 -25 -5 -50 -9 -25 -4 -101 -21 -170
-38 -69 -16 -135 -31 -147 -34 -13 -2 -78 -23 -145 -45 -1071 -357 -1886
-1168 -2242 -2231 -31 -94 -79 -267 -91 -329 -3 -13 -11 -58 -20 -99 -29 -147
-35 -193 -52 -370 -15 -162 -8 -592 12 -711 2 -13 6 -46 9 -74 47 -408 239
-953 466 -1318 30 -48 60 -95 65 -105 25 -44 135 -194 212 -289 203 -251 422
-457 690 -652 62 -44 115 -81 117 -81 3 0 32 -18 65 -40 33 -22 63 -40 67 -40
4 0 15 -6 23 -14 9 -7 81 -47 161 -88 354 -181 736 -303 1109 -354 25 -3 57
-8 71 -10 163 -25 682 -25 842 1 13 2 46 7 73 10 71 10 87 13 115 18 14 3 43
8 65 12 325 59 741 212 1039 384 49 28 91 51 93 51 10 0 268 180 353 247 152
119 324 280 450 422 36 41 70 79 76 85 29 30 185 242 240 326 120 184 241 412
315 597 66 163 147 422 175 558 16 75 54 300 60 350 4 33 9 76 11 95 8 69 10
517 2 595 -15 162 -21 220 -24 225 -2 3 -6 30 -10 60 -3 30 -10 71 -15 90 -5
19 -12 51 -15 70 -13 77 -66 272 -106 390 -350 1041 -1163 1856 -2204 2208
-167 56 -419 119 -555 137 -19 3 -46 7 -60 10 -13 2 -54 7 -90 11 -36 3 -76 8
-90 11 -27 5 -536 14 -542 9z m522 -570 c85 -11 125 -17 210 -32 121 -20 143
-25 150 -29 4 -2 22 -7 41 -10 44 -7 214 -59 304 -92 374 -138 712 -344 993
-607 122 -115 229 -231 319 -346 54 -70 173 -238 173 -245 0 -3 16 -30 36 -62
34 -53 130 -239 168 -325 9 -21 23 -55 32 -75 53 -119 125 -364 159 -541 25
-132 29 -154 42 -287 15 -150 8 -549 -11 -650 -2 -11 -7 -45 -11 -75 -18 -141
-79 -382 -137 -540 -263 -727 -784 -1309 -1478 -1651 -167 -82 -257 -116 -525
-199 -34 -10 -150 -37 -193 -44 -15 -3 -65 -12 -112 -20 -47 -8 -130 -18 -185
-23 -116 -9 -474 -9 -555 0 -30 4 -74 9 -97 11 -49 6 -201 33 -258 46 -22 5
-60 13 -85 19 -84 18 -315 95 -395 130 -11 5 -38 17 -60 26 -327 140 -627 346
-900 620 -253 253 -405 463 -558 770 -27 55 -53 109 -58 120 -4 11 -17 40 -27
65 -55 130 -112 306 -149 465 -15 67 -53 292 -59 360 -15 151 -7 655 11 685 1
3 6 28 9 55 9 67 44 236 63 305 143 521 390 950 762 1320 156 156 187 183 314
278 226 170 472 306 722 400 86 32 258 88 296 96 13 3 65 15 114 26 115 26
249 47 350 56 44 4 81 8 83 9 6 5 455 -3 502 -9z"/>
<path d="M3337 5594 c-1 -1 -33 -5 -72 -8 -162 -16 -381 -71 -557 -142 -387
-154 -739 -446 -970 -804 -168 -259 -270 -535 -318 -854 -14 -93 -17 -165 -14
-316 2 -107 5 -207 8 -222 18 -111 23 -141 31 -178 3 -14 7 -34 9 -45 28 -137
105 -344 184 -495 285 -546 797 -940 1402 -1079 160 -36 264 -46 485 -45 175
1 301 14 453 48 128 28 347 110 482 179 253 130 525 348 581 466 48 100 20
242 -63 317 -62 56 -120 76 -203 72 -91 -5 -126 -23 -233 -120 -145 -131 -323
-242 -492 -307 -67 -26 -220 -68 -275 -76 -23 -3 -52 -8 -65 -11 -42 -10 -312
-12 -380 -4 -270 35 -480 113 -700 261 -125 84 -315 273 -399 398 -127 189
-219 414 -246 601 -4 25 -11 70 -15 100 -8 55 -6 337 3 375 2 11 8 42 12 70 4
27 18 88 31 135 165 578 623 994 1219 1107 124 23 405 23 535 -1 281 -51 561
-190 772 -384 115 -105 141 -117 248 -117 75 0 91 3 131 27 94 55 144 143 142
250 -1 90 -27 141 -116 227 -185 179 -417 329 -656 425 -269 109 -508 154
-804 153 -81 0 -148 -1 -150 -3z"/>
</g>
</svg>
